<mxfile host="app.diagrams.net" modified="2022-04-16T06:00:30.013Z" agent="5.0 (Macintosh; Intel Mac OS X 10_15_7) AppleWebKit/537.36 (KHTML, like Gecko) Chrome/100.0.4896.127 Safari/537.36" etag="E_Gdh7pq-DedifovOoUY" version="17.4.5" type="github">
  <diagram id="QJjx0-fPxzvcmYibJWj1" name="Page-1">
    <mxGraphModel dx="2404" dy="1077" grid="1" gridSize="10" guides="1" tooltips="1" connect="1" arrows="1" fold="1" page="1" pageScale="1" pageWidth="827" pageHeight="583" math="0" shadow="0">
      <root>
        <mxCell id="0" />
        <mxCell id="1" parent="0" />
        <mxCell id="H2S2A1CCqXSOWBCPPBL0-11" style="edgeStyle=orthogonalEdgeStyle;rounded=0;orthogonalLoop=1;jettySize=auto;html=1;entryX=0.5;entryY=0;entryDx=0;entryDy=0;entryPerimeter=0;" parent="1" source="H2S2A1CCqXSOWBCPPBL0-3" target="H2S2A1CCqXSOWBCPPBL0-6" edge="1">
          <mxGeometry relative="1" as="geometry" />
        </mxCell>
        <mxCell id="H2S2A1CCqXSOWBCPPBL0-3" value="const" style="shape=cube;whiteSpace=wrap;html=1;boundedLbl=1;backgroundOutline=1;darkOpacity=0.05;darkOpacity2=0.1;size=10;direction=east;flipH=1;fillColor=#ffe6cc;strokeColor=#d79b00;" parent="1" vertex="1">
          <mxGeometry x="-300" y="70" width="110" height="30" as="geometry" />
        </mxCell>
        <mxCell id="H2S2A1CCqXSOWBCPPBL0-8" style="edgeStyle=orthogonalEdgeStyle;rounded=0;orthogonalLoop=1;jettySize=auto;html=1;exitX=0;exitY=0;exitDx=110;exitDy=20;exitPerimeter=0;entryX=1;entryY=0.5;entryDx=0;entryDy=0;entryPerimeter=0;" parent="1" source="H2S2A1CCqXSOWBCPPBL0-4" target="H2S2A1CCqXSOWBCPPBL0-6" edge="1">
          <mxGeometry relative="1" as="geometry" />
        </mxCell>
        <mxCell id="H2S2A1CCqXSOWBCPPBL0-4" value="noise" style="shape=cube;whiteSpace=wrap;html=1;boundedLbl=1;backgroundOutline=1;darkOpacity=0.05;darkOpacity2=0.1;size=10;direction=east;flipH=1;fillColor=#ffe6cc;strokeColor=#d79b00;" parent="1" vertex="1">
          <mxGeometry x="-140" y="131" width="110" height="30" as="geometry" />
        </mxCell>
        <mxCell id="H2S2A1CCqXSOWBCPPBL0-22" value="" style="edgeStyle=orthogonalEdgeStyle;rounded=0;orthogonalLoop=1;jettySize=auto;html=1;" parent="1" source="H2S2A1CCqXSOWBCPPBL0-5" target="H2S2A1CCqXSOWBCPPBL0-21" edge="1">
          <mxGeometry relative="1" as="geometry" />
        </mxCell>
        <mxCell id="H2S2A1CCqXSOWBCPPBL0-5" value="instance norm" style="shape=cube;whiteSpace=wrap;html=1;boundedLbl=1;backgroundOutline=1;darkOpacity=0.05;darkOpacity2=0.1;size=10;direction=east;flipH=1;fillColor=#ffe6cc;strokeColor=#d79b00;" parent="1" vertex="1">
          <mxGeometry x="-300" y="196" width="110" height="30" as="geometry" />
        </mxCell>
        <mxCell id="H2S2A1CCqXSOWBCPPBL0-16" style="edgeStyle=orthogonalEdgeStyle;rounded=0;orthogonalLoop=1;jettySize=auto;html=1;exitX=0.5;exitY=1;exitDx=0;exitDy=0;exitPerimeter=0;entryX=0.497;entryY=-0.007;entryDx=0;entryDy=0;entryPerimeter=0;" parent="1" source="H2S2A1CCqXSOWBCPPBL0-6" target="H2S2A1CCqXSOWBCPPBL0-5" edge="1">
          <mxGeometry relative="1" as="geometry" />
        </mxCell>
        <mxCell id="H2S2A1CCqXSOWBCPPBL0-6" value="" style="verticalLabelPosition=bottom;verticalAlign=top;html=1;shape=mxgraph.flowchart.summing_function;" parent="1" vertex="1">
          <mxGeometry x="-260" y="136" width="30" height="30" as="geometry" />
        </mxCell>
        <mxCell id="H2S2A1CCqXSOWBCPPBL0-24" value="" style="edgeStyle=orthogonalEdgeStyle;rounded=0;orthogonalLoop=1;jettySize=auto;html=1;" parent="1" source="H2S2A1CCqXSOWBCPPBL0-21" target="H2S2A1CCqXSOWBCPPBL0-23" edge="1">
          <mxGeometry relative="1" as="geometry" />
        </mxCell>
        <mxCell id="H2S2A1CCqXSOWBCPPBL0-21" value="add style" style="shape=cube;whiteSpace=wrap;html=1;boundedLbl=1;backgroundOutline=1;darkOpacity=0.05;darkOpacity2=0.1;size=10;direction=east;flipH=1;fillColor=#ffe6cc;strokeColor=#d79b00;" parent="1" vertex="1">
          <mxGeometry x="-300" y="273.13" width="110" height="30" as="geometry" />
        </mxCell>
        <mxCell id="H2S2A1CCqXSOWBCPPBL0-30" style="edgeStyle=orthogonalEdgeStyle;rounded=0;orthogonalLoop=1;jettySize=auto;html=1;entryX=0.5;entryY=0;entryDx=0;entryDy=0;entryPerimeter=0;" parent="1" source="H2S2A1CCqXSOWBCPPBL0-23" target="H2S2A1CCqXSOWBCPPBL0-29" edge="1">
          <mxGeometry relative="1" as="geometry" />
        </mxCell>
        <mxCell id="H2S2A1CCqXSOWBCPPBL0-23" value="conv" style="shape=cube;whiteSpace=wrap;html=1;boundedLbl=1;backgroundOutline=1;darkOpacity=0.05;darkOpacity2=0.1;size=10;direction=east;flipH=1;fillColor=#ffe6cc;strokeColor=#d79b00;" parent="1" vertex="1">
          <mxGeometry x="-300" y="347.12" width="110" height="30" as="geometry" />
        </mxCell>
        <mxCell id="H2S2A1CCqXSOWBCPPBL0-28" value="" style="edgeStyle=orthogonalEdgeStyle;rounded=0;orthogonalLoop=1;jettySize=auto;html=1;" parent="1" source="H2S2A1CCqXSOWBCPPBL0-25" target="H2S2A1CCqXSOWBCPPBL0-27" edge="1">
          <mxGeometry relative="1" as="geometry" />
        </mxCell>
        <mxCell id="H2S2A1CCqXSOWBCPPBL0-25" value="Instance norm" style="shape=cube;whiteSpace=wrap;html=1;boundedLbl=1;backgroundOutline=1;darkOpacity=0.05;darkOpacity2=0.1;size=10;direction=east;flipH=1;fillColor=#ffe6cc;strokeColor=#d79b00;" parent="1" vertex="1">
          <mxGeometry x="-300" y="470" width="110" height="30" as="geometry" />
        </mxCell>
        <mxCell id="yOFQHBUtRHu9rPTzp1Fk-145" style="edgeStyle=orthogonalEdgeStyle;rounded=0;orthogonalLoop=1;jettySize=auto;html=1;fontSize=16;strokeWidth=1;" edge="1" parent="1" source="H2S2A1CCqXSOWBCPPBL0-27" target="yOFQHBUtRHu9rPTzp1Fk-143">
          <mxGeometry relative="1" as="geometry" />
        </mxCell>
        <mxCell id="H2S2A1CCqXSOWBCPPBL0-27" value="add style" style="shape=cube;whiteSpace=wrap;html=1;boundedLbl=1;backgroundOutline=1;darkOpacity=0.05;darkOpacity2=0.1;size=10;direction=east;flipH=1;fillColor=#ffe6cc;strokeColor=#d79b00;" parent="1" vertex="1">
          <mxGeometry x="-300" y="555" width="110" height="30" as="geometry" />
        </mxCell>
        <mxCell id="H2S2A1CCqXSOWBCPPBL0-31" style="edgeStyle=orthogonalEdgeStyle;rounded=0;orthogonalLoop=1;jettySize=auto;html=1;entryX=0.502;entryY=-0.021;entryDx=0;entryDy=0;entryPerimeter=0;" parent="1" source="H2S2A1CCqXSOWBCPPBL0-29" target="H2S2A1CCqXSOWBCPPBL0-25" edge="1">
          <mxGeometry relative="1" as="geometry" />
        </mxCell>
        <mxCell id="H2S2A1CCqXSOWBCPPBL0-29" value="" style="verticalLabelPosition=bottom;verticalAlign=top;html=1;shape=mxgraph.flowchart.summing_function;" parent="1" vertex="1">
          <mxGeometry x="-260" y="410" width="30" height="30" as="geometry" />
        </mxCell>
        <mxCell id="H2S2A1CCqXSOWBCPPBL0-33" style="edgeStyle=orthogonalEdgeStyle;rounded=0;orthogonalLoop=1;jettySize=auto;html=1;entryX=1;entryY=0.5;entryDx=0;entryDy=0;entryPerimeter=0;" parent="1" source="H2S2A1CCqXSOWBCPPBL0-32" target="H2S2A1CCqXSOWBCPPBL0-29" edge="1">
          <mxGeometry relative="1" as="geometry" />
        </mxCell>
        <mxCell id="H2S2A1CCqXSOWBCPPBL0-32" value="noise" style="shape=cube;whiteSpace=wrap;html=1;boundedLbl=1;backgroundOutline=1;darkOpacity=0.05;darkOpacity2=0.1;size=10;direction=east;flipH=1;fillColor=#ffe6cc;strokeColor=#d79b00;" parent="1" vertex="1">
          <mxGeometry x="-140" y="410" width="110" height="30" as="geometry" />
        </mxCell>
        <mxCell id="H2S2A1CCqXSOWBCPPBL0-34" value="512 x 4 x 4" style="text;html=1;strokeColor=none;fillColor=none;align=center;verticalAlign=middle;whiteSpace=wrap;rounded=0;" parent="1" vertex="1">
          <mxGeometry x="-240" y="105" width="70" height="10" as="geometry" />
        </mxCell>
        <mxCell id="H2S2A1CCqXSOWBCPPBL0-41" value="512 x 4 x 4" style="text;html=1;strokeColor=none;fillColor=none;align=center;verticalAlign=middle;whiteSpace=wrap;rounded=0;" parent="1" vertex="1">
          <mxGeometry x="-129" y="166" width="70" height="10" as="geometry" />
        </mxCell>
        <mxCell id="H2S2A1CCqXSOWBCPPBL0-42" value="512 x 4 x 4" style="text;html=1;strokeColor=none;fillColor=none;align=center;verticalAlign=middle;whiteSpace=wrap;rounded=0;" parent="1" vertex="1">
          <mxGeometry x="-240" y="232.25" width="70" height="10" as="geometry" />
        </mxCell>
        <mxCell id="H2S2A1CCqXSOWBCPPBL0-43" value="512 x 4 x 4" style="text;html=1;strokeColor=none;fillColor=none;align=center;verticalAlign=middle;whiteSpace=wrap;rounded=0;" parent="1" vertex="1">
          <mxGeometry x="-240" y="310.13" width="70" height="10" as="geometry" />
        </mxCell>
        <mxCell id="H2S2A1CCqXSOWBCPPBL0-44" value="512 x 4 x 4" style="text;html=1;strokeColor=none;fillColor=none;align=center;verticalAlign=middle;whiteSpace=wrap;rounded=0;" parent="1" vertex="1">
          <mxGeometry x="-240" y="383.06" width="70" height="10" as="geometry" />
        </mxCell>
        <mxCell id="H2S2A1CCqXSOWBCPPBL0-45" value="512 x 4 x 4" style="text;html=1;strokeColor=none;fillColor=none;align=center;verticalAlign=middle;whiteSpace=wrap;rounded=0;" parent="1" vertex="1">
          <mxGeometry x="-240" y="506" width="70" height="10" as="geometry" />
        </mxCell>
        <mxCell id="H2S2A1CCqXSOWBCPPBL0-46" value="512 x 4 x 4" style="text;html=1;strokeColor=none;fillColor=none;align=center;verticalAlign=middle;whiteSpace=wrap;rounded=0;" parent="1" vertex="1">
          <mxGeometry x="-240" y="590" width="70" height="10" as="geometry" />
        </mxCell>
        <mxCell id="H2S2A1CCqXSOWBCPPBL0-47" value="512 x 4 x 4" style="text;html=1;strokeColor=none;fillColor=none;align=center;verticalAlign=middle;whiteSpace=wrap;rounded=0;" parent="1" vertex="1">
          <mxGeometry x="-130" y="444.12" width="70" height="10" as="geometry" />
        </mxCell>
        <mxCell id="yOFQHBUtRHu9rPTzp1Fk-137" style="edgeStyle=orthogonalEdgeStyle;rounded=0;orthogonalLoop=1;jettySize=auto;html=1;entryX=0;entryY=0;entryDx=87.325;entryDy=17.05;entryPerimeter=0;fontSize=16;strokeWidth=1;" edge="1" parent="1" source="yOFQHBUtRHu9rPTzp1Fk-2" target="yOFQHBUtRHu9rPTzp1Fk-4">
          <mxGeometry relative="1" as="geometry" />
        </mxCell>
        <mxCell id="yOFQHBUtRHu9rPTzp1Fk-138" style="edgeStyle=orthogonalEdgeStyle;rounded=0;orthogonalLoop=1;jettySize=auto;html=1;exitX=0;exitY=0;exitDx=48.595;exitDy=0;exitPerimeter=0;entryX=0;entryY=0;entryDx=87.325;entryDy=17.05;entryPerimeter=0;fontSize=16;strokeWidth=1;" edge="1" parent="1" source="yOFQHBUtRHu9rPTzp1Fk-2" target="yOFQHBUtRHu9rPTzp1Fk-8">
          <mxGeometry relative="1" as="geometry" />
        </mxCell>
        <mxCell id="yOFQHBUtRHu9rPTzp1Fk-139" style="edgeStyle=orthogonalEdgeStyle;rounded=0;orthogonalLoop=1;jettySize=auto;html=1;exitX=0;exitY=0;exitDx=48.595;exitDy=0;exitPerimeter=0;entryX=0;entryY=0;entryDx=87.325;entryDy=17.05;entryPerimeter=0;fontSize=16;strokeWidth=1;" edge="1" parent="1" source="yOFQHBUtRHu9rPTzp1Fk-2" target="yOFQHBUtRHu9rPTzp1Fk-49">
          <mxGeometry relative="1" as="geometry" />
        </mxCell>
        <mxCell id="yOFQHBUtRHu9rPTzp1Fk-140" style="edgeStyle=orthogonalEdgeStyle;rounded=0;orthogonalLoop=1;jettySize=auto;html=1;exitX=0;exitY=0;exitDx=48.595;exitDy=0;exitPerimeter=0;entryX=0;entryY=0;entryDx=87.325;entryDy=17.05;entryPerimeter=0;fontSize=16;strokeWidth=1;" edge="1" parent="1" source="yOFQHBUtRHu9rPTzp1Fk-2" target="yOFQHBUtRHu9rPTzp1Fk-50">
          <mxGeometry relative="1" as="geometry" />
        </mxCell>
        <mxCell id="yOFQHBUtRHu9rPTzp1Fk-184" style="edgeStyle=orthogonalEdgeStyle;rounded=0;orthogonalLoop=1;jettySize=auto;html=1;exitX=0;exitY=0;exitDx=48.595000000000006;exitDy=0;exitPerimeter=0;fontSize=16;strokeWidth=1;entryX=0;entryY=0.5;entryDx=0;entryDy=0;" edge="1" parent="1">
          <mxGeometry relative="1" as="geometry">
            <mxPoint x="-353.5" y="1753" as="targetPoint" />
            <mxPoint x="-708.8800000000001" y="796.0449999999998" as="sourcePoint" />
            <Array as="points">
              <mxPoint x="-559" y="796" />
              <mxPoint x="-559" y="1753" />
            </Array>
          </mxGeometry>
        </mxCell>
        <mxCell id="yOFQHBUtRHu9rPTzp1Fk-2" value="" style="shape=cube;whiteSpace=wrap;html=1;boundedLbl=1;backgroundOutline=1;darkOpacity=0.05;darkOpacity2=0.1;size=6;direction=east;flipH=1;fillColor=#dae8fc;strokeColor=#6c8ebf;rotation=-90;flipV=1;" vertex="1" parent="1">
          <mxGeometry x="-770" y="790.52" width="103.19" height="17.05" as="geometry" />
        </mxCell>
        <mxCell id="yOFQHBUtRHu9rPTzp1Fk-10" style="edgeStyle=orthogonalEdgeStyle;rounded=0;orthogonalLoop=1;jettySize=auto;html=1;entryX=0;entryY=0;entryDx=110;entryDy=20;entryPerimeter=0;" edge="1" parent="1" source="yOFQHBUtRHu9rPTzp1Fk-4" target="H2S2A1CCqXSOWBCPPBL0-21">
          <mxGeometry relative="1" as="geometry" />
        </mxCell>
        <mxCell id="yOFQHBUtRHu9rPTzp1Fk-4" value="" style="shape=cube;whiteSpace=wrap;html=1;boundedLbl=1;backgroundOutline=1;darkOpacity=0.05;darkOpacity2=0.1;size=6;direction=east;flipH=1;fillColor=#dae8fc;strokeColor=#6c8ebf;rotation=-90;flipV=1;" vertex="1" parent="1">
          <mxGeometry x="-480" y="285.07" width="168.65" height="17.05" as="geometry" />
        </mxCell>
        <mxCell id="yOFQHBUtRHu9rPTzp1Fk-12" style="edgeStyle=orthogonalEdgeStyle;rounded=0;orthogonalLoop=1;jettySize=auto;html=1;entryX=0;entryY=0;entryDx=110;entryDy=20;entryPerimeter=0;" edge="1" parent="1" source="yOFQHBUtRHu9rPTzp1Fk-8" target="H2S2A1CCqXSOWBCPPBL0-27">
          <mxGeometry relative="1" as="geometry" />
        </mxCell>
        <mxCell id="yOFQHBUtRHu9rPTzp1Fk-8" value="" style="shape=cube;whiteSpace=wrap;html=1;boundedLbl=1;backgroundOutline=1;darkOpacity=0.05;darkOpacity2=0.1;size=6;direction=east;flipH=1;fillColor=#dae8fc;strokeColor=#6c8ebf;rotation=-90;flipV=1;" vertex="1" parent="1">
          <mxGeometry x="-480" y="567" width="168.65" height="17.05" as="geometry" />
        </mxCell>
        <mxCell id="yOFQHBUtRHu9rPTzp1Fk-13" value="512" style="text;html=1;strokeColor=none;fillColor=none;align=center;verticalAlign=middle;whiteSpace=wrap;rounded=0;" vertex="1" parent="1">
          <mxGeometry x="-748.41" y="845" width="60" height="30" as="geometry" />
        </mxCell>
        <mxCell id="yOFQHBUtRHu9rPTzp1Fk-14" value="1024" style="text;html=1;strokeColor=none;fillColor=none;align=center;verticalAlign=middle;whiteSpace=wrap;rounded=0;" vertex="1" parent="1">
          <mxGeometry x="-425.67999999999995" y="659" width="60" height="30" as="geometry" />
        </mxCell>
        <mxCell id="yOFQHBUtRHu9rPTzp1Fk-15" value="1024" style="text;html=1;strokeColor=none;fillColor=none;align=center;verticalAlign=middle;whiteSpace=wrap;rounded=0;" vertex="1" parent="1">
          <mxGeometry x="-425.67999999999995" y="373.06" width="60" height="30" as="geometry" />
        </mxCell>
        <mxCell id="yOFQHBUtRHu9rPTzp1Fk-29" style="edgeStyle=orthogonalEdgeStyle;rounded=0;orthogonalLoop=1;jettySize=auto;html=1;entryX=0.5;entryY=0;entryDx=0;entryDy=0;entryPerimeter=0;" edge="1" parent="1" target="yOFQHBUtRHu9rPTzp1Fk-24">
          <mxGeometry relative="1" as="geometry">
            <mxPoint x="-245" y="848.94" as="sourcePoint" />
          </mxGeometry>
        </mxCell>
        <mxCell id="yOFQHBUtRHu9rPTzp1Fk-31" style="edgeStyle=orthogonalEdgeStyle;rounded=0;orthogonalLoop=1;jettySize=auto;html=1;entryX=0.506;entryY=-0.003;entryDx=0;entryDy=0;entryPerimeter=0;" edge="1" parent="1" source="yOFQHBUtRHu9rPTzp1Fk-24" target="yOFQHBUtRHu9rPTzp1Fk-148">
          <mxGeometry relative="1" as="geometry">
            <mxPoint x="-245" y="942" as="targetPoint" />
          </mxGeometry>
        </mxCell>
        <mxCell id="yOFQHBUtRHu9rPTzp1Fk-24" value="" style="verticalLabelPosition=bottom;verticalAlign=top;html=1;shape=mxgraph.flowchart.summing_function;" vertex="1" parent="1">
          <mxGeometry x="-260" y="894" width="30" height="30" as="geometry" />
        </mxCell>
        <mxCell id="yOFQHBUtRHu9rPTzp1Fk-160" style="edgeStyle=orthogonalEdgeStyle;rounded=0;orthogonalLoop=1;jettySize=auto;html=1;fontSize=16;strokeWidth=1;" edge="1" parent="1" source="yOFQHBUtRHu9rPTzp1Fk-36" target="yOFQHBUtRHu9rPTzp1Fk-156">
          <mxGeometry relative="1" as="geometry" />
        </mxCell>
        <mxCell id="yOFQHBUtRHu9rPTzp1Fk-36" value="" style="verticalLabelPosition=bottom;verticalAlign=top;html=1;shape=mxgraph.flowchart.summing_function;" vertex="1" parent="1">
          <mxGeometry x="-260" y="1279" width="30" height="30" as="geometry" />
        </mxCell>
        <mxCell id="yOFQHBUtRHu9rPTzp1Fk-181" style="edgeStyle=orthogonalEdgeStyle;rounded=0;orthogonalLoop=1;jettySize=auto;html=1;entryX=0;entryY=0;entryDx=130;entryDy=39.739999999999995;entryPerimeter=0;fontSize=16;strokeWidth=1;" edge="1" parent="1" source="yOFQHBUtRHu9rPTzp1Fk-49" target="yOFQHBUtRHu9rPTzp1Fk-150">
          <mxGeometry relative="1" as="geometry" />
        </mxCell>
        <mxCell id="yOFQHBUtRHu9rPTzp1Fk-49" value="" style="shape=cube;whiteSpace=wrap;html=1;boundedLbl=1;backgroundOutline=1;darkOpacity=0.05;darkOpacity2=0.1;size=6;direction=east;flipH=1;fillColor=#dae8fc;strokeColor=#6c8ebf;rotation=-90;flipV=1;" vertex="1" parent="1">
          <mxGeometry x="-480" y="1091" width="168.65" height="17.05" as="geometry" />
        </mxCell>
        <mxCell id="yOFQHBUtRHu9rPTzp1Fk-179" style="edgeStyle=orthogonalEdgeStyle;rounded=0;orthogonalLoop=1;jettySize=auto;html=1;entryX=0;entryY=0;entryDx=130;entryDy=39.739999999999995;entryPerimeter=0;fontSize=16;strokeWidth=1;" edge="1" parent="1" source="yOFQHBUtRHu9rPTzp1Fk-50" target="yOFQHBUtRHu9rPTzp1Fk-157">
          <mxGeometry relative="1" as="geometry" />
        </mxCell>
        <mxCell id="yOFQHBUtRHu9rPTzp1Fk-50" value="" style="shape=cube;whiteSpace=wrap;html=1;boundedLbl=1;backgroundOutline=1;darkOpacity=0.05;darkOpacity2=0.1;size=6;direction=east;flipH=1;fillColor=#dae8fc;strokeColor=#6c8ebf;rotation=-90;flipV=1;" vertex="1" parent="1">
          <mxGeometry x="-480" y="1500" width="168.65" height="17.05" as="geometry" />
        </mxCell>
        <mxCell id="yOFQHBUtRHu9rPTzp1Fk-51" value="1024" style="text;html=1;strokeColor=none;fillColor=none;align=center;verticalAlign=middle;whiteSpace=wrap;rounded=0;" vertex="1" parent="1">
          <mxGeometry x="-425.67999999999995" y="1590" width="60" height="30" as="geometry" />
        </mxCell>
        <mxCell id="yOFQHBUtRHu9rPTzp1Fk-56" value="512 x 8 x 8" style="text;html=1;strokeColor=none;fillColor=none;align=center;verticalAlign=middle;whiteSpace=wrap;rounded=0;" vertex="1" parent="1">
          <mxGeometry x="-230" y="763" width="70" height="10" as="geometry" />
        </mxCell>
        <mxCell id="yOFQHBUtRHu9rPTzp1Fk-57" value="512 x 8 x 8" style="text;html=1;strokeColor=none;fillColor=none;align=center;verticalAlign=middle;whiteSpace=wrap;rounded=0;" vertex="1" parent="1">
          <mxGeometry x="-230" y="850" width="70" height="20" as="geometry" />
        </mxCell>
        <mxCell id="yOFQHBUtRHu9rPTzp1Fk-58" value="512 x 8 x 8" style="text;html=1;strokeColor=none;fillColor=none;align=center;verticalAlign=middle;whiteSpace=wrap;rounded=0;" vertex="1" parent="1">
          <mxGeometry x="-230" y="1020" width="70" height="10" as="geometry" />
        </mxCell>
        <mxCell id="yOFQHBUtRHu9rPTzp1Fk-59" value="512 x 8 x 8" style="text;html=1;strokeColor=none;fillColor=none;align=center;verticalAlign=middle;whiteSpace=wrap;rounded=0;" vertex="1" parent="1">
          <mxGeometry x="-230" y="1130" width="70" height="10" as="geometry" />
        </mxCell>
        <mxCell id="yOFQHBUtRHu9rPTzp1Fk-60" value="512 x 8 x 8" style="text;html=1;strokeColor=none;fillColor=none;align=center;verticalAlign=middle;whiteSpace=wrap;rounded=0;" vertex="1" parent="1">
          <mxGeometry x="-225" y="1243" width="70" height="10" as="geometry" />
        </mxCell>
        <mxCell id="yOFQHBUtRHu9rPTzp1Fk-61" value="512 x 8 x 8" style="text;html=1;strokeColor=none;fillColor=none;align=center;verticalAlign=middle;whiteSpace=wrap;rounded=0;" vertex="1" parent="1">
          <mxGeometry x="-90" y="939.07" width="70" height="10" as="geometry" />
        </mxCell>
        <mxCell id="yOFQHBUtRHu9rPTzp1Fk-62" value="512 x 8 x 8" style="text;html=1;strokeColor=none;fillColor=none;align=center;verticalAlign=middle;whiteSpace=wrap;rounded=0;" vertex="1" parent="1">
          <mxGeometry x="-96" y="1321" width="70" height="10" as="geometry" />
        </mxCell>
        <mxCell id="yOFQHBUtRHu9rPTzp1Fk-64" value="512 x 8 x 8" style="text;html=1;strokeColor=none;fillColor=none;align=center;verticalAlign=middle;whiteSpace=wrap;rounded=0;" vertex="1" parent="1">
          <mxGeometry x="-227" y="1427" width="70" height="10" as="geometry" />
        </mxCell>
        <mxCell id="yOFQHBUtRHu9rPTzp1Fk-65" value="512 x 8 x 8" style="text;html=1;strokeColor=none;fillColor=none;align=center;verticalAlign=middle;whiteSpace=wrap;rounded=0;" vertex="1" parent="1">
          <mxGeometry x="-225" y="1541" width="70" height="10" as="geometry" />
        </mxCell>
        <mxCell id="yOFQHBUtRHu9rPTzp1Fk-175" style="edgeStyle=orthogonalEdgeStyle;rounded=0;orthogonalLoop=1;jettySize=auto;html=1;entryX=0;entryY=0;entryDx=84.5;entryDy=55;entryPerimeter=0;fontSize=16;strokeWidth=1;" edge="1" parent="1" source="yOFQHBUtRHu9rPTzp1Fk-79" target="yOFQHBUtRHu9rPTzp1Fk-92">
          <mxGeometry relative="1" as="geometry" />
        </mxCell>
        <mxCell id="yOFQHBUtRHu9rPTzp1Fk-79" value="List of GSynthesisBlock" style="swimlane;fontStyle=0;childLayout=stackLayout;horizontal=1;startSize=26;horizontalStack=0;resizeParent=1;resizeParentMax=0;resizeLast=0;collapsible=1;marginBottom=0;align=center;fontSize=14;" vertex="1" parent="1">
          <mxGeometry x="-354.5" y="1652" width="220" height="236" as="geometry">
            <mxRectangle x="-90" y="1639" width="50" height="26" as="alternateBounds" />
          </mxGeometry>
        </mxCell>
        <mxCell id="yOFQHBUtRHu9rPTzp1Fk-83" value="512 x 8 x 8——&gt; 512 x 16 x 16" style="text;strokeColor=none;fillColor=none;spacingLeft=4;spacingRight=4;overflow=hidden;rotatable=0;points=[[0,0.5],[1,0.5]];portConstraint=eastwest;fontSize=12;" vertex="1" parent="yOFQHBUtRHu9rPTzp1Fk-79">
          <mxGeometry y="26" width="220" height="30" as="geometry" />
        </mxCell>
        <mxCell id="yOFQHBUtRHu9rPTzp1Fk-80" value="512 x 16 x 16——&gt; 512 x 32 x 32" style="text;strokeColor=none;fillColor=none;spacingLeft=4;spacingRight=4;overflow=hidden;rotatable=0;points=[[0,0.5],[1,0.5]];portConstraint=eastwest;fontSize=12;" vertex="1" parent="yOFQHBUtRHu9rPTzp1Fk-79">
          <mxGeometry y="56" width="220" height="30" as="geometry" />
        </mxCell>
        <mxCell id="yOFQHBUtRHu9rPTzp1Fk-81" value="512 x 32 x 32——&gt; 256 x 64 x 64" style="text;strokeColor=none;fillColor=none;spacingLeft=4;spacingRight=4;overflow=hidden;rotatable=0;points=[[0,0.5],[1,0.5]];portConstraint=eastwest;fontSize=12;" vertex="1" parent="yOFQHBUtRHu9rPTzp1Fk-79">
          <mxGeometry y="86" width="220" height="30" as="geometry" />
        </mxCell>
        <mxCell id="yOFQHBUtRHu9rPTzp1Fk-82" value="256 x 64 x 64——&gt; 128 x 128 x 128" style="text;strokeColor=none;fillColor=none;spacingLeft=4;spacingRight=4;overflow=hidden;rotatable=0;points=[[0,0.5],[1,0.5]];portConstraint=eastwest;fontSize=12;" vertex="1" parent="yOFQHBUtRHu9rPTzp1Fk-79">
          <mxGeometry y="116" width="220" height="30" as="geometry" />
        </mxCell>
        <mxCell id="yOFQHBUtRHu9rPTzp1Fk-84" value="128 x 128 x 128——&gt;64 x 256 x 256" style="text;strokeColor=none;fillColor=none;spacingLeft=4;spacingRight=4;overflow=hidden;rotatable=0;points=[[0,0.5],[1,0.5]];portConstraint=eastwest;fontSize=12;" vertex="1" parent="yOFQHBUtRHu9rPTzp1Fk-79">
          <mxGeometry y="146" width="220" height="30" as="geometry" />
        </mxCell>
        <mxCell id="yOFQHBUtRHu9rPTzp1Fk-86" value="64 x 256 x 256——&gt; 32 x 512 x 512" style="text;strokeColor=none;fillColor=none;spacingLeft=4;spacingRight=4;overflow=hidden;rotatable=0;points=[[0,0.5],[1,0.5]];portConstraint=eastwest;fontSize=12;" vertex="1" parent="yOFQHBUtRHu9rPTzp1Fk-79">
          <mxGeometry y="176" width="220" height="30" as="geometry" />
        </mxCell>
        <mxCell id="yOFQHBUtRHu9rPTzp1Fk-87" value="32 x 512 x 512——&gt; 16 x 1024 x 1024" style="text;strokeColor=none;fillColor=none;spacingLeft=4;spacingRight=4;overflow=hidden;rotatable=0;points=[[0,0.5],[1,0.5]];portConstraint=eastwest;fontSize=12;" vertex="1" parent="yOFQHBUtRHu9rPTzp1Fk-79">
          <mxGeometry y="206" width="220" height="30" as="geometry" />
        </mxCell>
        <mxCell id="yOFQHBUtRHu9rPTzp1Fk-92" value="to rgb" style="shape=cube;whiteSpace=wrap;html=1;boundedLbl=1;backgroundOutline=1;darkOpacity=0.05;darkOpacity2=0.1;size=110;direction=east;flipH=1;fillColor=#ffe6cc;strokeColor=#d79b00;flipV=0;" vertex="1" parent="1">
          <mxGeometry x="-300" y="1933" width="139.5" height="370" as="geometry" />
        </mxCell>
        <mxCell id="yOFQHBUtRHu9rPTzp1Fk-94" value="3 x 1024 x 1024" style="text;html=1;strokeColor=none;fillColor=none;align=center;verticalAlign=middle;whiteSpace=wrap;rounded=0;" vertex="1" parent="1">
          <mxGeometry x="-210" y="2266" width="90" height="10" as="geometry" />
        </mxCell>
        <mxCell id="yOFQHBUtRHu9rPTzp1Fk-95" value="&lt;div&gt;&lt;span&gt;&amp;nbsp;AdaIN&lt;/span&gt;&lt;/div&gt;&lt;div&gt;&lt;span&gt;&lt;br&gt;&lt;/span&gt;&lt;/div&gt;&lt;div&gt;&lt;span&gt;&lt;br&gt;&lt;/span&gt;&lt;/div&gt;&lt;div&gt;&lt;span&gt;&lt;br&gt;&lt;/span&gt;&lt;/div&gt;&lt;div&gt;&lt;span&gt;&lt;br&gt;&lt;/span&gt;&lt;/div&gt;&lt;div&gt;&lt;span&gt;&lt;br&gt;&lt;/span&gt;&lt;/div&gt;&lt;div&gt;&lt;br&gt;&lt;/div&gt;&lt;div&gt;&lt;br&gt;&lt;/div&gt;" style="rounded=0;whiteSpace=wrap;html=1;fontSize=16;fillColor=none;dashed=1;align=left;" vertex="1" parent="1">
          <mxGeometry x="-356" y="176" width="209" height="154" as="geometry" />
        </mxCell>
        <mxCell id="yOFQHBUtRHu9rPTzp1Fk-96" value="&lt;div&gt;&lt;span&gt;&amp;nbsp;&lt;/span&gt;&lt;span&gt;AdaIN&lt;/span&gt;&lt;/div&gt;&lt;div&gt;&lt;span&gt;&lt;br&gt;&lt;/span&gt;&lt;/div&gt;&lt;div&gt;&lt;span&gt;&lt;br&gt;&lt;/span&gt;&lt;/div&gt;&lt;div&gt;&lt;span&gt;&lt;br&gt;&lt;/span&gt;&lt;/div&gt;&lt;div&gt;&lt;span&gt;&lt;br&gt;&lt;/span&gt;&lt;/div&gt;&lt;div&gt;&lt;span&gt;&lt;br&gt;&lt;/span&gt;&lt;/div&gt;&lt;div&gt;&lt;span&gt;&lt;br&gt;&lt;/span&gt;&lt;/div&gt;&lt;div&gt;&lt;span&gt;&lt;br&gt;&lt;/span&gt;&lt;/div&gt;" style="rounded=0;whiteSpace=wrap;html=1;fontSize=16;fillColor=none;dashed=1;align=left;" vertex="1" parent="1">
          <mxGeometry x="-349" y="456" width="209" height="154" as="geometry" />
        </mxCell>
        <mxCell id="yOFQHBUtRHu9rPTzp1Fk-121" style="edgeStyle=orthogonalEdgeStyle;rounded=0;orthogonalLoop=1;jettySize=auto;html=1;fontSize=16;strokeWidth=1;" edge="1" parent="1" source="yOFQHBUtRHu9rPTzp1Fk-103" target="yOFQHBUtRHu9rPTzp1Fk-106">
          <mxGeometry relative="1" as="geometry" />
        </mxCell>
        <mxCell id="yOFQHBUtRHu9rPTzp1Fk-103" value="instance norm" style="shape=cube;whiteSpace=wrap;html=1;boundedLbl=1;backgroundOutline=1;darkOpacity=0.05;darkOpacity2=0.1;size=10;direction=east;flipH=1;fillColor=#ffe6cc;strokeColor=#d79b00;" vertex="1" parent="1">
          <mxGeometry x="228.17" y="196.6" width="110" height="30" as="geometry" />
        </mxCell>
        <mxCell id="yOFQHBUtRHu9rPTzp1Fk-105" value="" style="edgeStyle=orthogonalEdgeStyle;rounded=0;orthogonalLoop=1;jettySize=auto;html=1;" edge="1" parent="1" source="yOFQHBUtRHu9rPTzp1Fk-106" target="yOFQHBUtRHu9rPTzp1Fk-107">
          <mxGeometry relative="1" as="geometry" />
        </mxCell>
        <mxCell id="yOFQHBUtRHu9rPTzp1Fk-106" value="add style" style="shape=cube;whiteSpace=wrap;html=1;boundedLbl=1;backgroundOutline=1;darkOpacity=0.05;darkOpacity2=0.1;size=10;direction=east;flipH=1;fillColor=#ffe6cc;strokeColor=#d79b00;" vertex="1" parent="1">
          <mxGeometry x="228.17" y="324.73" width="110" height="30" as="geometry" />
        </mxCell>
        <mxCell id="yOFQHBUtRHu9rPTzp1Fk-107" value="conv" style="shape=cube;whiteSpace=wrap;html=1;boundedLbl=1;backgroundOutline=1;darkOpacity=0.05;darkOpacity2=0.1;size=10;direction=east;flipH=1;fillColor=#ffe6cc;strokeColor=#d79b00;" vertex="1" parent="1">
          <mxGeometry x="228.17" y="474.65999999999997" width="110" height="30" as="geometry" />
        </mxCell>
        <mxCell id="yOFQHBUtRHu9rPTzp1Fk-111" style="edgeStyle=orthogonalEdgeStyle;rounded=0;orthogonalLoop=1;jettySize=auto;html=1;entryX=0;entryY=0;entryDx=110;entryDy=20;entryPerimeter=0;" edge="1" parent="1" source="yOFQHBUtRHu9rPTzp1Fk-112" target="yOFQHBUtRHu9rPTzp1Fk-106">
          <mxGeometry relative="1" as="geometry" />
        </mxCell>
        <mxCell id="yOFQHBUtRHu9rPTzp1Fk-112" value="" style="shape=cube;whiteSpace=wrap;html=1;boundedLbl=1;backgroundOutline=1;darkOpacity=0.05;darkOpacity2=0.1;size=6;direction=east;flipH=1;fillColor=#dae8fc;strokeColor=#6c8ebf;rotation=-90;flipV=1;" vertex="1" parent="1">
          <mxGeometry x="60" y="336.49" width="145" height="17.05" as="geometry" />
        </mxCell>
        <mxCell id="yOFQHBUtRHu9rPTzp1Fk-118" value="" style="endArrow=classic;html=1;rounded=0;fontSize=16;strokeWidth=1;" edge="1" parent="1">
          <mxGeometry width="50" height="50" relative="1" as="geometry">
            <mxPoint x="84.17" y="344.82000000000005" as="sourcePoint" />
            <mxPoint x="124.17" y="344.82000000000005" as="targetPoint" />
          </mxGeometry>
        </mxCell>
        <mxCell id="yOFQHBUtRHu9rPTzp1Fk-122" value="&lt;div&gt;&lt;span&gt;&amp;nbsp;StyleMod&lt;/span&gt;&lt;/div&gt;&lt;div&gt;&lt;span&gt;&lt;br&gt;&lt;/span&gt;&lt;/div&gt;&lt;div&gt;&lt;span&gt;&lt;br&gt;&lt;/span&gt;&lt;/div&gt;&lt;div&gt;&lt;span&gt;&lt;br&gt;&lt;/span&gt;&lt;/div&gt;&lt;div&gt;&lt;span&gt;&lt;br&gt;&lt;/span&gt;&lt;/div&gt;&lt;div&gt;&lt;span&gt;&lt;br&gt;&lt;/span&gt;&lt;/div&gt;&lt;div&gt;&lt;span&gt;&lt;br&gt;&lt;/span&gt;&lt;/div&gt;&lt;div&gt;&lt;span&gt;&lt;br&gt;&lt;/span&gt;&lt;/div&gt;&lt;div&gt;&lt;span&gt;&lt;br&gt;&lt;/span&gt;&lt;/div&gt;&lt;div&gt;&lt;span&gt;&lt;br&gt;&lt;/span&gt;&lt;/div&gt;" style="rounded=0;whiteSpace=wrap;html=1;dashed=1;fontSize=16;fillColor=none;align=left;" vertex="1" parent="1">
          <mxGeometry x="108.17" y="242.6" width="260" height="199" as="geometry" />
        </mxCell>
        <mxCell id="yOFQHBUtRHu9rPTzp1Fk-125" style="edgeStyle=orthogonalEdgeStyle;rounded=0;orthogonalLoop=1;jettySize=auto;html=1;exitX=0;exitY=0;exitDx=110;exitDy=20;exitPerimeter=0;entryX=1;entryY=0.5;entryDx=0;entryDy=0;entryPerimeter=0;" edge="1" parent="1" source="yOFQHBUtRHu9rPTzp1Fk-126" target="yOFQHBUtRHu9rPTzp1Fk-127">
          <mxGeometry relative="1" as="geometry" />
        </mxCell>
        <mxCell id="yOFQHBUtRHu9rPTzp1Fk-126" value="noise" style="shape=cube;whiteSpace=wrap;html=1;boundedLbl=1;backgroundOutline=1;darkOpacity=0.05;darkOpacity2=0.1;size=10;direction=east;flipH=1;fillColor=#ffe6cc;strokeColor=#d79b00;" vertex="1" parent="1">
          <mxGeometry x="388.17" y="129.6" width="110" height="30" as="geometry" />
        </mxCell>
        <mxCell id="yOFQHBUtRHu9rPTzp1Fk-133" value="" style="edgeStyle=orthogonalEdgeStyle;rounded=0;orthogonalLoop=1;jettySize=auto;html=1;fontSize=16;strokeWidth=1;" edge="1" parent="1" source="yOFQHBUtRHu9rPTzp1Fk-127" target="yOFQHBUtRHu9rPTzp1Fk-103">
          <mxGeometry relative="1" as="geometry" />
        </mxCell>
        <mxCell id="yOFQHBUtRHu9rPTzp1Fk-127" value="" style="verticalLabelPosition=bottom;verticalAlign=top;html=1;shape=mxgraph.flowchart.summing_function;" vertex="1" parent="1">
          <mxGeometry x="268.17" y="133.6" width="30" height="30" as="geometry" />
        </mxCell>
        <mxCell id="yOFQHBUtRHu9rPTzp1Fk-135" value="" style="endArrow=classic;html=1;rounded=0;fontSize=16;strokeWidth=1;entryX=0.5;entryY=0;entryDx=0;entryDy=0;entryPerimeter=0;" edge="1" parent="1" target="yOFQHBUtRHu9rPTzp1Fk-127">
          <mxGeometry width="50" height="50" relative="1" as="geometry">
            <mxPoint x="283" y="60" as="sourcePoint" />
            <mxPoint x="298.17" y="115" as="targetPoint" />
          </mxGeometry>
        </mxCell>
        <mxCell id="yOFQHBUtRHu9rPTzp1Fk-136" value="&amp;nbsp;LayerEpilogue&lt;br&gt;&lt;br&gt;&lt;br&gt;&lt;br&gt;&lt;br&gt;&lt;br&gt;&lt;br&gt;&lt;br&gt;&lt;br&gt;&lt;br&gt;&lt;br&gt;&lt;br&gt;&lt;br&gt;&lt;br&gt;&lt;br&gt;&lt;br&gt;&lt;br&gt;&lt;div&gt;&lt;br&gt;&lt;/div&gt;" style="rounded=0;whiteSpace=wrap;html=1;dashed=1;fontSize=16;fillColor=none;align=left;" vertex="1" parent="1">
          <mxGeometry x="94" y="115" width="420" height="345" as="geometry" />
        </mxCell>
        <mxCell id="yOFQHBUtRHu9rPTzp1Fk-176" style="edgeStyle=orthogonalEdgeStyle;rounded=0;orthogonalLoop=1;jettySize=auto;html=1;entryX=0.482;entryY=0.008;entryDx=0;entryDy=0;entryPerimeter=0;fontSize=16;strokeWidth=1;" edge="1" parent="1" source="yOFQHBUtRHu9rPTzp1Fk-143" target="yOFQHBUtRHu9rPTzp1Fk-147">
          <mxGeometry relative="1" as="geometry" />
        </mxCell>
        <mxCell id="yOFQHBUtRHu9rPTzp1Fk-143" value="upscale" style="shape=cube;whiteSpace=wrap;html=1;boundedLbl=1;backgroundOutline=1;darkOpacity=0.05;darkOpacity2=0.1;size=20;direction=east;flipH=1;fillColor=#ffe6cc;strokeColor=#d79b00;" vertex="1" parent="1">
          <mxGeometry x="-309.5" y="680" width="130" height="63.48" as="geometry" />
        </mxCell>
        <mxCell id="yOFQHBUtRHu9rPTzp1Fk-147" value="blur" style="shape=cube;whiteSpace=wrap;html=1;boundedLbl=1;backgroundOutline=1;darkOpacity=0.05;darkOpacity2=0.1;size=20;direction=east;flipH=1;fillColor=#ffe6cc;strokeColor=#d79b00;" vertex="1" parent="1">
          <mxGeometry x="-311.35" y="790.52" width="130" height="59.48" as="geometry" />
        </mxCell>
        <mxCell id="yOFQHBUtRHu9rPTzp1Fk-177" style="edgeStyle=orthogonalEdgeStyle;rounded=0;orthogonalLoop=1;jettySize=auto;html=1;entryX=0.487;entryY=0.003;entryDx=0;entryDy=0;entryPerimeter=0;fontSize=16;strokeWidth=1;" edge="1" parent="1" source="yOFQHBUtRHu9rPTzp1Fk-148" target="yOFQHBUtRHu9rPTzp1Fk-150">
          <mxGeometry relative="1" as="geometry" />
        </mxCell>
        <mxCell id="yOFQHBUtRHu9rPTzp1Fk-148" value="instance norm" style="shape=cube;whiteSpace=wrap;html=1;boundedLbl=1;backgroundOutline=1;darkOpacity=0.05;darkOpacity2=0.1;size=20;direction=east;flipH=1;fillColor=#ffe6cc;strokeColor=#d79b00;" vertex="1" parent="1">
          <mxGeometry x="-308.5" y="954.0699999999999" width="130" height="59.48" as="geometry" />
        </mxCell>
        <mxCell id="yOFQHBUtRHu9rPTzp1Fk-163" style="edgeStyle=orthogonalEdgeStyle;rounded=0;orthogonalLoop=1;jettySize=auto;html=1;fontSize=16;strokeWidth=1;" edge="1" parent="1" source="yOFQHBUtRHu9rPTzp1Fk-150" target="yOFQHBUtRHu9rPTzp1Fk-153">
          <mxGeometry relative="1" as="geometry" />
        </mxCell>
        <mxCell id="yOFQHBUtRHu9rPTzp1Fk-150" value="add style" style="shape=cube;whiteSpace=wrap;html=1;boundedLbl=1;backgroundOutline=1;darkOpacity=0.05;darkOpacity2=0.1;size=20;direction=east;flipH=1;fillColor=#ffe6cc;strokeColor=#d79b00;" vertex="1" parent="1">
          <mxGeometry x="-309.5" y="1060" width="130" height="59.48" as="geometry" />
        </mxCell>
        <mxCell id="yOFQHBUtRHu9rPTzp1Fk-171" style="edgeStyle=orthogonalEdgeStyle;rounded=0;orthogonalLoop=1;jettySize=auto;html=1;entryX=0.5;entryY=0;entryDx=0;entryDy=0;entryPerimeter=0;fontSize=16;strokeWidth=1;" edge="1" parent="1" source="yOFQHBUtRHu9rPTzp1Fk-153" target="yOFQHBUtRHu9rPTzp1Fk-36">
          <mxGeometry relative="1" as="geometry" />
        </mxCell>
        <mxCell id="yOFQHBUtRHu9rPTzp1Fk-153" value="conv" style="shape=cube;whiteSpace=wrap;html=1;boundedLbl=1;backgroundOutline=1;darkOpacity=0.05;darkOpacity2=0.1;size=20;direction=east;flipH=1;fillColor=#ffe6cc;strokeColor=#d79b00;" vertex="1" parent="1">
          <mxGeometry x="-310" y="1166" width="130" height="59.48" as="geometry" />
        </mxCell>
        <mxCell id="yOFQHBUtRHu9rPTzp1Fk-166" style="edgeStyle=orthogonalEdgeStyle;rounded=0;orthogonalLoop=1;jettySize=auto;html=1;exitX=0;exitY=0;exitDx=110;exitDy=39.739999999999995;exitPerimeter=0;entryX=1;entryY=0.5;entryDx=0;entryDy=0;entryPerimeter=0;fontSize=16;strokeWidth=1;" edge="1" parent="1" source="yOFQHBUtRHu9rPTzp1Fk-155" target="yOFQHBUtRHu9rPTzp1Fk-24">
          <mxGeometry relative="1" as="geometry" />
        </mxCell>
        <mxCell id="yOFQHBUtRHu9rPTzp1Fk-155" value="noise" style="shape=cube;whiteSpace=wrap;html=1;boundedLbl=1;backgroundOutline=1;darkOpacity=0.05;darkOpacity2=0.1;size=20;direction=east;flipH=1;fillColor=#ffe6cc;strokeColor=#d79b00;" vertex="1" parent="1">
          <mxGeometry x="-120" y="869.26" width="130" height="59.48" as="geometry" />
        </mxCell>
        <mxCell id="yOFQHBUtRHu9rPTzp1Fk-161" style="edgeStyle=orthogonalEdgeStyle;rounded=0;orthogonalLoop=1;jettySize=auto;html=1;fontSize=16;strokeWidth=1;" edge="1" parent="1" source="yOFQHBUtRHu9rPTzp1Fk-156" target="yOFQHBUtRHu9rPTzp1Fk-157">
          <mxGeometry relative="1" as="geometry" />
        </mxCell>
        <mxCell id="yOFQHBUtRHu9rPTzp1Fk-156" value="conv" style="shape=cube;whiteSpace=wrap;html=1;boundedLbl=1;backgroundOutline=1;darkOpacity=0.05;darkOpacity2=0.1;size=20;direction=east;flipH=1;fillColor=#ffe6cc;strokeColor=#d79b00;" vertex="1" parent="1">
          <mxGeometry x="-309.5" y="1359" width="130" height="59.48" as="geometry" />
        </mxCell>
        <mxCell id="yOFQHBUtRHu9rPTzp1Fk-162" style="edgeStyle=orthogonalEdgeStyle;rounded=0;orthogonalLoop=1;jettySize=auto;html=1;entryX=0.5;entryY=0;entryDx=0;entryDy=0;fontSize=16;strokeWidth=1;" edge="1" parent="1" source="yOFQHBUtRHu9rPTzp1Fk-157" target="yOFQHBUtRHu9rPTzp1Fk-79">
          <mxGeometry relative="1" as="geometry" />
        </mxCell>
        <mxCell id="yOFQHBUtRHu9rPTzp1Fk-157" value="add style" style="shape=cube;whiteSpace=wrap;html=1;boundedLbl=1;backgroundOutline=1;darkOpacity=0.05;darkOpacity2=0.1;size=20;direction=east;flipH=1;fillColor=#ffe6cc;strokeColor=#d79b00;" vertex="1" parent="1">
          <mxGeometry x="-309" y="1469" width="130" height="59.48" as="geometry" />
        </mxCell>
        <mxCell id="yOFQHBUtRHu9rPTzp1Fk-167" style="edgeStyle=orthogonalEdgeStyle;rounded=0;orthogonalLoop=1;jettySize=auto;html=1;exitX=0;exitY=0;exitDx=110;exitDy=39.739999999999995;exitPerimeter=0;entryX=1;entryY=0.5;entryDx=0;entryDy=0;entryPerimeter=0;fontSize=16;strokeWidth=1;" edge="1" parent="1" source="yOFQHBUtRHu9rPTzp1Fk-159" target="yOFQHBUtRHu9rPTzp1Fk-36">
          <mxGeometry relative="1" as="geometry" />
        </mxCell>
        <mxCell id="yOFQHBUtRHu9rPTzp1Fk-159" value="noise" style="shape=cube;whiteSpace=wrap;html=1;boundedLbl=1;backgroundOutline=1;darkOpacity=0.05;darkOpacity2=0.1;size=20;direction=east;flipH=1;fillColor=#ffe6cc;strokeColor=#d79b00;" vertex="1" parent="1">
          <mxGeometry x="-110" y="1254" width="130" height="59.48" as="geometry" />
        </mxCell>
        <mxCell id="yOFQHBUtRHu9rPTzp1Fk-182" value="1024" style="text;html=1;strokeColor=none;fillColor=none;align=center;verticalAlign=middle;whiteSpace=wrap;rounded=0;" vertex="1" parent="1">
          <mxGeometry x="-424.99999999999994" y="1186" width="60" height="30" as="geometry" />
        </mxCell>
      </root>
    </mxGraphModel>
  </diagram>
</mxfile>
